<?xml version="1.0" encoding="utf-8"?>
<!-- Generator: Adobe Illustrator 26.0.3, SVG Export Plug-In . SVG Version: 6.00 Build 0)  -->
<svg version="1.1" id="katman_1" xmlns="http://www.w3.org/2000/svg" xmlns:xlink="http://www.w3.org/1999/xlink" x="0px" y="0px"
	 viewBox="0 0 597 456" style="enable-background:new 0 0 597 456;" xml:space="preserve">
<style type="text/css">
	.st0{fill:#07A24F;}
	.st1{fill:#FFFFFF;}
</style>
<g>
	<g>
		<path class="st0" d="M185.7,301.5l-72-72l35.5-35.5c20.2-20.2,52.8-20.2,73,0l35.5,35.5L185.7,301.5z"/>
	</g>
	<g>
		<path class="st1" d="M257.8,373.6l-72-72L425.1,62.2c20.2-20.2,52.8-20.2,73,0l35.5,35.5L257.8,373.6z"/>
	</g>
	<g>
		<path class="st1" d="M425.3,242.7C417.8,329.6,344.7,398,255.9,398c-93.7,0-170-76.3-170-170s76.3-170,170-170
			c38.7,0,74.4,13,102.9,34.8L375,76.7c-32.8-25.8-74.1-41.3-119-41.3C149.8,35.4,63.4,121.8,63.4,228s86.4,192.6,192.6,192.6
			S448.5,334.2,448.5,228c0-3.4-0.1-6.8-0.3-10.1L425.3,242.7z"/>
	</g>
</g>
</svg>
